/* XPM */
static char *_517019007350[] = {
/* columns rows colors chars-per-pixel */
"64 64 196 2 ",
"   c #000003",
".  c #00000D",
"X  c gray6",
"o  c #020211",
"O  c #090212",
"+  c #0A0A1A",
"@  c #110517",
"#  c #110B16",
"$  c #140A1B",
"%  c #0E1611",
"&  c #101912",
"*  c #13131C",
"=  c #1E2F11",
"-  c #1F3013",
";  c #1D300F",
":  c #203114",
">  c #212C17",
",  c #1C0921",
"<  c #181924",
"1  c #230A25",
"2  c #2A2B37",
"3  c #32323C",
"4  c #2E3032",
"5  c #3A3B45",
"6  c #350F41",
"7  c #3F414B",
"8  c #43444C",
"9  c #4F4942",
"0  c #504A43",
"q  c #594F4D",
"w  c #4B4C55",
"e  c #53535C",
"r  c #5C544B",
"t  c #5A5B64",
"y  c #5F6069",
"u  c #62646D",
"i  c #69696E",
"p  c #6B6C74",
"a  c #6F7279",
"s  c #73737C",
"d  c #7C7C7D",
"f  c #E2363E",
"g  c #FF363E",
"h  c #FF2F3E",
"j  c #FE463F",
"k  c #FF4A3F",
"l  c #E24F3D",
"z  c #AF327E",
"x  c #BC3273",
"c  c #B2327B",
"v  c #B93278",
"b  c #AB2F6A",
"n  c #BD2F5E",
"m  c #D92C45",
"M  c #D7325F",
"N  c #DC325C",
"B  c #C72D53",
"V  c #EF324F",
"C  c #FD3344",
"Z  c #FE3C44",
"A  c #F4324B",
"S  c #FA324A",
"D  c #E53256",
"F  c #EB3252",
"G  c #E1325A",
"H  c #F13353",
"J  c #C5326D",
"K  c #CB3269",
"L  c #CF3265",
"P  c #D33264",
"I  c #DC3362",
"U  c #C23373",
"Y  c #FF3E68",
"T  c #E23778",
"R  c #FF3877",
"E  c #E23071",
"W  c #FF4344",
"Q  c #FF4B43",
"!  c #FF444D",
"~  c #FF5344",
"^  c #FF5B44",
"/  c #FF5148",
"(  c #FF425A",
")  c #F0575A",
"_  c #FF6244",
"`  c #FF6C44",
"'  c #FF7444",
"]  c #FF7B44",
"[  c #ED477C",
"{  c #E9457A",
"}  c #F64D6F",
"|  c #CF7274",
" . c #57940A",
".. c #598F14",
"X. c #5D9315",
"o. c #5F9518",
"O. c #508A07",
"+. c #629C15",
"@. c #62961B",
"#. c #5DA107",
"$. c #64A80B",
"%. c #6FB30F",
"&. c #70B60E",
"*. c #73BC0D",
"=. c #66A313",
"-. c #68A712",
";. c #6AAC11",
":. c #6DB010",
">. c #76B816",
",. c #769532",
"<. c #70A323",
"1. c #76C10C",
"2. c #79C60B",
"3. c #7BCA0A",
"4. c #84AF35",
"5. c #FF8444",
"6. c #ECA171",
"7. c #FEAB7C",
"8. c #FEB379",
"9. c #FEBC79",
"0. c #FDB676",
"q. c #FC8A7D",
"w. c #B5C767",
"e. c #BBC571",
"r. c #FEC479",
"t. c #FECA79",
"y. c #FEC577",
"u. c #FED479",
"i. c #FEDC79",
"p. c #FEE379",
"a. c #FEEA79",
"s. c #7C7B82",
"d. c #FF3585",
"f. c #FF3B85",
"g. c #FF3489",
"h. c #FF3C88",
"j. c #FF4385",
"k. c #FF4A85",
"l. c #FF4388",
"z. c #FF5485",
"x. c #FF5D85",
"c. c #FF6585",
"v. c #FF6C85",
"b. c #FF7485",
"n. c #FF7C85",
"m. c #E17880",
"M. c #7E8188",
"N. c #84858B",
"B. c #86878D",
"V. c #8C8D94",
"C. c #95959B",
"Z. c #9A9A9F",
"A. c #929296",
"S. c #8F9393",
"D. c #BB8A8A",
"F. c #AF9296",
"G. c #9B9CA1",
"H. c #A1A1A5",
"J. c #A4A4AA",
"K. c #AAAAAE",
"L. c #A6AAAE",
"P. c #AEAEB2",
"I. c #B4B5B9",
"U. c #BBBBBD",
"Y. c #B1B2B5",
"T. c #FF8285",
"R. c #F6B986",
"E. c #D1A5A4",
"W. c #DE9490",
"Q. c #D2CF8B",
"!. c #DCD694",
"~. c #FDD29A",
"^. c #EBD5A9",
"/. c #E6DAA0",
"(. c #FADCA9",
"). c #FDE5B5",
"_. c #FDE7BA",
"`. c #FFEABD",
"'. c #FBE4B3",
"]. c #FFF1BE",
"[. c #F2E0AA",
"{. c #BDBDC1",
"}. c #C2C2C5",
"|. c #CBCBCD",
" X c #C4C6C9",
".X c #CFCFD2",
"XX c #D2D2D4",
"oX c #DBDBDC",
"OX c #D7D6D9",
"+X c #FFF5C4",
"@X c #DEDFE0",
"#X c #ECECED",
"$X c #E5E5E6",
"%X c #FEFEFE",
"&X c #F7F7F8",
"*X c None",
/* pixels */
"*X*X*X*X*X*X*X*X*X*X*X*X*X*X*X*X*X*X*X*X*X*X*X*X*X*X*X*X*X*Xa.a.a.a.*X*X*X*X*X*X*X*X*X*X*X*X*X*X*X*X*X*X*X*X*X*X*X*X*X*X*X*X*X*X",
"*X*X*X*X*X*X*X*X*X*XT.T.T.T.T.*X*X*X*X*X*X*X*X*X*X*X*X*X*X*Xa.a.a.a.a.a.*X*X*X*X*X*X*X*X*X*X*X*X*X*X*X*X*X*X*X*X*X*X*X*X*X*X*X*X",
"*X*X*X*X*X*X*X*X*XT.T.T.T.T.T.T.T.T.T.T.T.T.T.*X*X*X*X*X*X*Xp.p.a.a.a.p.p.a.*X*X*X*X*X*X*X*X*X*X*X*X*X*X*X*X).*X*X*X*X*X*X*X*X*X",
"*X*X*X*X*X*X*X*XT.T.T.n.T.T.T.T.n.T.n.T.T.T.T.T.T.T.n.*X*X*X*Xp.p.p.p.p.p.p.p.p.*X*X*X*X*X*X*X*X*X*X*X*X*X).).).*X*X*X*X*X*X*X*X",
"*X*X*X*X*X*X*Xn.n.T.n.T.n.n.n.n.n.n.n.n.n.n.n.n.n.n.n.n.n.n.*Xp.p.p.i.p.p.p.i.p.p.p.*X*X*X*X*X*X*X*X*X*X*X).).).).*X*X*X*X*X*X*X",
"*X*X*X*X*X*Xn.n.n.b.n.T.n.n.n.n.n.n.n.n.n.n.n.n.n.n.n.n.n.b.T.u.p.i.i.i.i.p.i.i.i.i.i.*X*X*X*X*X*X*X*X*X).).).).).).*X*X*X*X*X*X",
"*X*X*X*X*X*Xb.b.b.b.b.b.n.b.b.b.b.b.n.b.b.n.b.b.b.b.n.b.n.b.b.t.i.i.i.i.i.i.i.i.i.i.i.i.i.*X*X*X*X*X*X*X).).)._.).).*X*X*X*X*X*X",
"*X*X*X*X*Xb.b.b.b.b.b.b.b.b.b.b.b.b.b.b.b.b.b.b.b.b.b.b.b.b.b.9.i.u.u.i.u.u.i.u.u.i.u.u.i.u.*X*X*X*X*X).).).).).).).).*X*X*X*X*X",
"*X*X*X*X*Xb.v.b.b.b.b.b.b.b.v.b.b.v.b.b.b.v.b.b.b.b.v.b.b.b.v.8.i.u.u.u.u.u.u.u.u.u.u.u.u.u.u.*X*X*X*X).).).).).).).).).*X*X*X*X",
"*X*X*X*Xv.b.v.v.b.v.v.v.v.v.v.v.v.v.v.v.b.v.v.v.v.v.v.v.v.v.v.8.u.t.t.u.u.t.u.t.u.u.u.t.u.u.t.u.*X*X).).).).).).)._.).).*X*X*X*X",
"*X*X*X*Xv.v.v.v.v.v.v.v.v.v.v.v.v.v.v.v.v.v.v.v.v.v.v.v.v.v.c.7.u.t.t.t.t.t.t.t.t.t.t.t.t.t.t.t.*X*X).).).).).).).).).).).*X*X*X",
"*X*X*Xc.c.c.c.c.c.c.c.c.c.v.c.c.v.c.c.c.c.c.c.c.c.c.c.v.c.c.c.7.t.t.t.t.t.t.t.t.t.t.t.t.t.y.t.y.t.).).).).`.).).).).).).).*X*X*X",
"*X*X*Xc.c.c.c.c.c.c.c.c.c.c.c.c.c.c.x.c.c.c.x.c.c.c.c.x.c.c.} R.t.r.r.r.r.r.r.r.r.r.r.r.r.r.r.y.(.).).).).).`.).`.).).).)._.*X*X",
"*X*Xc.x.x.x.x.x.x.x.x.x.x.x.x.x.c.x.x.x.x.x.x.x.x.c.x.x.x.c.v.9.r.9.r.9.r.9.r.9.r.9.r.9.r.9.y.~._.).).).).).).).).).).).).).*X*X",
"*X*Xx.x.x.x.x.x.x.x.x.x.x.x.x.x.x.x.x.x.x.x.x.x.x.x.x.x.x.z.v.9.9.9.9.9.9.9.9.9.9.9.9.9.9.0.~.).).).).).).).).).).).).).).).*X*X",
"*X*Xz.z.z.x.z.z.z.z.z.x.z.z.z.z.z.z.z.x.z.z.x.z.z.z.x.z.z.z.n.9.8.9.8.9.8.9.8.9.8.9.9.8.0.~.).).).).).).).).).).).).).).).).).*X",
"*Xz.z.z.z.z.z.z.z.z.z.z.z.z.z.z.z.z.z.z.z.z.z.z.z.z.z.z.z.k.| 9.8.8.8.8.8.8.8.8.0.8.0.8.~.).).).).).).).).).).).).).).).).).).*X",
"*Xz.z.z.k.z.k.z.k.z.z.z.k.z.z.z.z.k.z.z.k.z.z.k.k.z.z.z.z.z.R.9.8.8.8.8.8.8.8.8.8.8.R.'.].).`._.).).).).).).).).).).).).).).).*X",
"*Xk.k.z.k.k.k.k.k.k.k.k.k.k.k.[ { [ [ [ [ [ [ [ [ [ [ [ j.[ 6.6.6.6.6.6.6.6.6.6.6.R.^.^.^.^.^.^.).).).).).).).).).)._.).).).).*X",
"*Xl.k.l.k.k.k.k.k.k.k.k.k.k.{ @ O $ @ @ @ @ @ @ @ # @ # o + % # # # # # # # # # # + * # * * O r ].'.).)._.).).).).).).)._.).).*X",
"*Xk.j.k.l.l.l.k.j.j.j.j.k.l.T O . . . . . o o . . . . o . o . . . . . o . . . o . . . . . .   0 ].'.'.).).).).).).).).).).).).).",
"j.f.j.j.j.j.f.j.j.j.j.j.j.l.T O o . o o o o o o O O O o o O o o o O o o o O o o o o o . o o   0 `.'.'.).).).).).).).).).).).).*X",
"f.f.f.f.j.f.j.f.f.f.j.f.f.l.T O . o . o                                       . o o o . o o   0 ].'.'.).).).).).).).).).).`.).*X",
"f.f.f.f.f.f.f.f.h.h.h.f.f.h.T O . o o . 5 s.s s s s s s s s s a s s s s s s w . . o . o o o   0 ].'.'.).).).).).).).).).).).).*X",
"f.f.f.d.f.f.d.f.f.d.f.f.f.h.T O . o o   C.%X%X%X%X&X%X%X%X%X%X%X%X%X%X%X%X%X%XH.. o o o o o . 0 ].'.).).).).).).`.).).).).).*X*X",
"*Xd.d.d.g.g.g.g.d.d.d.d.d.h.T O . o o . G.%X&X%X%X%X%X%X%X%X%X%X%X%X%X&X%X&X%X%Xt   o . o o   0 ].'.).).).).).).).).).).).).*X*X",
"*X*X*X( ( ( Y Y Y R R d.g.g.T O . . o   G.%X&X%X%X%X%X%X%X%X%X%X%X%X%X%X%X%X&X%XI.. o o . o   0 ].'.).).).).).).).).).).).).*X*X",
"*X*X*Xk j j k Q W W ! ! H Y I O o o . . G.%X&X%X%X%X%X%X%X%X%X%X%X%X%X%X%X%X%X%X$X< . o o o   0 ].'.).).).).).).).).).'.).*X*X*X",
"*X*XW W ' ` W W W W W W j j f O . o o   G.%X%X%X%X%X%X%X%X%X%X%X%X%X%X%X%X%X%X%X&X3 . o o o   0 ].'.'.'.).).).).'.).`.`.`.*X*X*X",
"*X*XZ ~ 5.5.' W Z W W W Z W f O . o . . 7 N.M.M.M.s.M.B.V.V.V.S.V.G.%X%X%X%X%X%X%X5   o o o   0 ].'.'.'.).).'.).`.'.!.w.>.1.1.*X",
"*X*XZ ^ ] ' ] ' ~ C Z Z Z Z f O o o o . y }.I.I.I.I.}.7           < #X%X%X%X%X%X%X8   o o o   0 `.'.'.).).).`.[.w.4.;.$.&.*.*X*X",
"*XZ C ^ ] ' ' ] ] _ W C Z Z f O . o o   G.%X&X%X%X%X%X XV.C.C.C.A.J.%X%X%X%X%X%X%X5 . o o o   0 ].'.).'.`.).w.<.$.$.:.&.*.1.*X*X",
"*Xg C ^ ' ` ' ` ` ' ` ~ Z C f O o . . . C.%X&X%X%X%X%X%X%X%X%X%X%X%X%X%X%X%X%X%X&X5   o o o   0 ].'.'._./.4.X.+.-.;.:.&.1.1.*X*X",
"*XC C ^ ` _ ` _ ` _ ` ` _ Q f O . o o   Z.%X%X%X%X%X%X%X%X%X%X%X%X%X%X%X%X%X%X%X$X2 . o . o . 9 ].'.`.Q.@. .=.=.-.:.:.&.*.*X*X*X",
"*XC C ~ _ _ _ _ _ ^ _ _ _ _ l O o o o . G.%X&X%X%X%X%X%X%X%X%X%X%X%X%X%X%X%X%X%X&X3   o o o   0 `._.Q... .+.=.=.;.:.:.*.1.*X*X*X",
"*XC C Q ^ ^ ^ ^ ^ ^ ^ ^ ^ ^ l O o . o   G.%X%X%X%X%X%X%X%X%X%X%X%X%X%X%X%X%X%X%X%X|.* . o o   9 +X!.@...o.o.=.-.;.:.:.*.1.*X*X*X",
"*XS C Q ~ ~ ~ ~ ~ ~ ~ ~ ~ ~ l . . o o   G.%X%X%X%X%X%X%X%X%X%X%X%X%X%X%X%X%X%X%X%X%XP.. . O   0 `.,...X.o.=.=.-.:.:.>.*.1.*X*X*X",
"*XS S W ~ Q Q Q Q Q Q Q W Q | . . o o . G.%X%X%X%X%X%XY.p s s a s a M.$X%X%X%X%X%X&X%XV.  +   r w.O.o.X.X.=.=.$.:.:.&.*.1.*X*X*X",
"*XA A A W W W W W W Q W / W.D.O . o o   G.%X%X%X%X%X%Xs   . . . . . . p %X%X%X%X%X%X%X%Xw   . 4 <...X.X.o.=.=.;.:.:.*.1.2.*X*X*X",
"*XA A A Z W W Z W W Z g W.E.D.O . o o   Z.%X&X%X%X%X%Xs               . B.%X%X%X%X%X%X%X.XO o - X.X...o.=.=.=.;.:.&.&.1.2.*X*X*X",
"*XV A V Z Z Z Z Z Z Z g ) E.D.o o o o   G.%X&X%X%X%X%X.XH.J.H.J.J.J.J.J.I.&X%X%X%X%X%X%X%X7   : o...X.o.=.=.-.;.:.*.*.2.2.*X*X*X",
"*XF F F S C C C C C C C h m.F.o . . o   G.%X%X%X%X%X%X%X%X%X%X%X%X%X%X%X%X%X%X%X%X%X%X%X%Xy   : =.X.X.o.o.=.;.:.:.*.*.2.2.*X*X*X",
"*XF D D A C C g C h C C C C | + . o o . Z.%X%X%X%X%X%X%X%X%X%X%X%X%X%X%X%X%X%X%X%X%X%X%X%X8   : o.X.o.=.=.$.;.:.:.*.1.2.3.*X*X*X",
"*X*XD D F C C C S C S C S C m o o o o   Z.%X%X%X%X%X%X%X%X%X%X%X%X%X%X%X%X%X%X%X%X%X&X%X}.< . = o.X.o.o.-.-.:.:.*.*.1.2.3.*X*X*X",
"*X*XN G G A A A A A S A A S m O . o o   G.%X%X%X%X%X%X%X%X%X%X%X%X%X%X%X%X%X%X%X%X%X%XoX7 . o = +.X.o.=.-.-.;.%.&.*.2.3.3.*X*X*X",
"*X*XN N M D A A A A A V A S m O o . o . C.%X&X%X%X%X%X%X%X%X%X%X&X%X%X%X%X%X%X%X%X#XL.5 . o . = +.X.o.+.-.;.:.:.*.1.2.3.*X*X*X*X",
"*X*XM M M M F F H F F F F H m O . o o . 3 u u u u u u u u u u u u u u u u u u u t 5 O . o o . = =.X.=.=.-.;.:.&.*.1.3.3.*X*X*X*X",
"*X*X*XP P P M D D D D D D D B o o o O o . . . .   . .   . . . . . .   . . .   .     o o o . o = o.o.o.=.;.:.:.:.*.2.3.3.*X*X*X*X",
"*X*X*XP L P L L N N N N N G B O         . o O o o o o O O O o o o O O . o O O . 3 e . . o O . = =.o.$.=.;.:.:.&.1.2.3.3.*X*X*X*X",
"*X*X*XK K K K K L P M P N I B . 2 V.V.d +         .         .           .       e H.        o = +.o.=.-.;.:.&.*.1.2.3.*X*X*X*X*X",
"*X*X*X*XJ J J J J J K L L L n   8 #X|.%X5 e U.U.d e G.Y.B.H.* B.s H..XN.7 {. XA.t s.a  X{.N.. : =.+.=.-.;.:.&.*.1.2.3.*X*X*X*X*X",
"*X*X*X*XJ J J J J J J J J K n . 5 oXK.%X7 Z.%X$XJ.N.@XG.H.#Xi oXM.XX{.G.N.oXU.}.A. XB.XX|.@X. ; =.+.=.$.:.&.&.*.1.2.3.*X*X*X*X*X",
"*X*X*X*X*Xx x J x x J x x U b   w %XH.#Xd J.A.H.L.s.}.    K.#X|.8 oXX   d P.& |.A.{.L.M.5 $X. > =.+.=.;.:.:.&.1.3.3.*X*X*X*X*X*X",
"*X*X*X*X*X*Xx x x x x x x U b   w %XN.XX@XU.OXU.Z.N.|..   i %XC.4 %XK.B.Z.#XP.$XC.E.Y.V.8 #X  6 ,.=.-.;.:.&.*.1.2.*X*X*X*X*X*X*X",
"*X*X*X*X*X*Xv v v x v v v v b . 5  X.XXXs.i XXOXi t Z.  . < %Xi # {.oXC.8 .XOXG.i S.M.p 3 I.o + *X=.-.;.:.&.1.1.*X*X*X*X*X*X*X*X",
"*X*X*X*X*X*X*Xv v v c v v v b O                       .   2 &X2         .         .   . .   o . *X=.-.:.&.&.1.*X*X*X*X*X*X*X*X*X",
"*X*X*X*X*X*X*Xc c c c c c v b , , , , , , , , , 1 1 1 1   8 S.& & & & & & & & & & & & % & X . o *X*X:.:.&.*X*X*X*X*X*X*X*X*X*X*X",
"*X*X*X*X*X*X*X*Xz z z c c c z z c c z z z z z c c c *X*X*X .O.+.+.+.=.o.=.o.=.=.+.=.+.=.+.=.*X*X*X*X*X*X*X*X*X*X*X*X*X*X*X*X*X*X",
"*X*X*X*X*X*X*X*X*X*Xz z z z z z z z z z z *X*X*X*X*X*X*X*X-.-.-.-.-.-.=.-.-.$.=.-.;.-.-.;.=.;.*X*X*X*X*X*X*X*X*X*X*X*X*X*X*X*X*X",
"*X*X*X*X*X*X*X*X*X*X*X*X*X*X*X*X*X*X*X*X*X*X*X*X*X*X*X*X;.:.;.;.;.;.%.;.:.;.:.:.:.:.:.:.%.%.%.*X*X*X*X*X*X*X*X*X*X*X*X*X*X*X*X*X",
"*X*X*X*X*X*X*X*X*X*X*X*X*X*X*X*X*X*X*X*X*X*X*X*X*X*X*X:.%.&.%.%.&.%.&.%.%.%.*.%.&.&.&.&.*.&.*X*X*X*X*X*X*X*X*X*X*X*X*X*X*X*X*X*X",
"*X*X*X*X*X*X*X*X*X*X*X*X*X*X*X*X*X*X*X*X*X*X*X*X*X*X*X1.*.*.*.1.*.1.*.1.1.1.1.1.1.1.1.2.1.*X*X*X*X*X*X*X*X*X*X*X*X*X*X*X*X*X*X*X",
"*X*X*X*X*X*X*X*X*X*X*X*X*X*X*X*X*X*X*X*X*X*X*X*X*X*X*X*X*X*X*X*X*X3.2.2.3.3.2.2.3.3.3.*X*X*X*X*X*X*X*X*X*X*X*X*X*X*X*X*X*X*X*X*X",
"*X*X*X*X*X*X*X*X*X*X*X*X*X*X*X*X*X*X*X*X*X*X*X*X*X*X*X*X*X*X*X*X*X*X*X*X*X*X*X*X*X*X*X*X*X*X*X*X*X*X*X*X*X*X*X*X*X*X*X*X*X*X*X*X"
};
