/* XPM */
static char *eb72a1c8029540b5a6fad8b9ca1513a2[] = {
/* columns rows colors chars-per-pixel */
"16 16 189 2 ",
"   c #000004",
".  c #000005",
"X  c #0B110D",
"o  c #000010",
"O  c #000011",
"+  c #000210",
"@  c #000112",
"#  c #000615",
"$  c #0F0D15",
"%  c #151017",
"&  c #18151D",
"*  c #1E1B1E",
"=  c #131624",
"-  c #191D2A",
";  c #181E2C",
":  c #1B1E30",
">  c #1B232F",
",  c #222231",
"<  c #2E2E32",
"1  c #383E3A",
"2  c #55073E",
"3  c #406D08",
"4  c #477A06",
"5  c #477808",
"6  c #4B7D0B",
"7  c #3A3A43",
"8  c #3B3B44",
"9  c #631148",
"0  c #404149",
"q  c #44454D",
"w  c #454153",
"e  c #434450",
"r  c #4E5057",
"t  c #555C56",
"y  c #56555D",
"u  c #5B5664",
"i  c #5B5D66",
"p  c #605F68",
"a  c #62616D",
"s  c #676F74",
"d  c #707179",
"f  c #75747B",
"g  c #74777E",
"h  c #AF1F39",
"j  c #B72A35",
"k  c #B73430",
"l  c #FE4F3E",
"z  c #FC6A3E",
"x  c #99244B",
"c  c #872359",
"v  c #B42D5E",
"b  c #B8285C",
"n  c #B6355F",
"m  c #B92E65",
"M  c #B93A65",
"N  c #A12D73",
"B  c #B73172",
"V  c #B5337E",
"C  c #F83345",
"Z  c #F83647",
"A  c #FF3848",
"S  c #E13156",
"D  c #EA3252",
"F  c #FF3451",
"G  c #C6316A",
"H  c #DB346A",
"J  c #C2347B",
"K  c #FC3B69",
"L  c #FE3B75",
"P  c #FF3C79",
"I  c #A74250",
"U  c #A95350",
"Y  c #B4545A",
"T  c #B67A56",
"R  c #B37F54",
"E  c #FB4543",
"W  c #FE4145",
"Q  c #FF4D44",
"!  c #FF5049",
"~  c #FB6644",
"^  c #FF6847",
"/  c #ED497C",
"(  c #4B8106",
")  c #5A940E",
"_  c #5D960D",
"`  c #5F9F0D",
"'  c #538316",
"]  c #5E9515",
"[  c #62901E",
"{  c #62AD03",
"}  c #74BD0D",
"|  c #74BD0F",
" . c #6CAF10",
".. c #6DAC16",
"X. c #6CA11F",
"o. c #72B810",
"O. c #74B912",
"+. c #7CBF19",
"@. c #77C30C",
"#. c #79C70B",
"$. c #78C70C",
"%. c #7DCB0F",
"&. c #7ECC0E",
"*. c #80CF0F",
"=. c #BB8D69",
"-. c #AFC75C",
";. c #FBC870",
":. c #FACB77",
">. c #FACD77",
",. c #FFC57C",
"<. c #FBCD78",
"1. c #FFCE7F",
"2. c #FDDB79",
"3. c #FEDC79",
"4. c #FDE078",
"5. c #FDE878",
"6. c #767284",
"7. c #787585",
"8. c #7E7B8A",
"9. c #FF3E86",
"0. c #FB3E88",
"q. c #807D8C",
"w. c #FE4E83",
"e. c #FF4E84",
"r. c #FF4F85",
"t. c #FF438F",
"y. c #FF5D84",
"u. c #FF5D85",
"i. c #FF5E86",
"p. c #FF5D8D",
"a. c #FC6784",
"s. c #FB6B83",
"d. c #FB6C83",
"f. c #FE6C84",
"g. c #FF6C85",
"h. c #FF618B",
"j. c #FF648C",
"k. c #FF7485",
"l. c #FB7D81",
"z. c #FE7B84",
"x. c #FF7A85",
"c. c #83848B",
"v. c #8F9097",
"b. c #919298",
"n. c #93949A",
"m. c #94959B",
"M. c #9B959D",
"N. c #BAB9BD",
"B. c #FF8185",
"V. c #FF8285",
"C. c #FF8089",
"Z. c #FE9381",
"A. c #C2B090",
"S. c #D5CF92",
"D. c #FEC880",
"F. c #FED592",
"G. c #F6DFB0",
"H. c #F1E0AA",
"J. c #FCE0AB",
"K. c #F7E0B0",
"L. c #F9E3B1",
"P. c #FBE4B5",
"I. c #FCE4B4",
"U. c #FDE4B4",
"Y. c #FDE5B4",
"T. c #FCE4B5",
"R. c #FDE5B5",
"E. c #FEE6B5",
"W. c #FDE5B6",
"Q. c #FDE6BB",
"!. c #FFE8B9",
"~. c #C4C5C8",
"^. c #CFD0D3",
"/. c #D9D9DE",
"(. c #DDDADD",
"). c #DFDEDF",
"_. c #FEE8C0",
"`. c #E0DFE1",
"'. c #E1DFE1",
"]. c #E2E2E4",
"[. c #EAEBEC",
"{. c #F8F7F7",
"}. c #F8F9F8",
"|. c #F9FAF9",
" X c gray98",
".X c #FBFBFB",
"XX c gray99",
"oX c gray100",
"OX c None",
/* pixels */
"OXOXB.B.B.OXOXOX5.OXOXOXOXOXOXOX",
"OXOXx.x.x.x.k.Z.4.3.2.OXOXU.OXOX",
"OXf.g.g.d.d.a.B.>.>.<.;.J.U.U.OX",
"OXi.y.i.h.j.p.x.1.D.,.F.U.U.U.U.",
"e.w.e./ M n v Y R T =.A.P.U.P.U.",
"9.0.t.m . - > ; : = . * K.U.L.P.",
"L K P b + (.oXXXoX}., & K.!._.OX",
"l z Q j + N.^.c.~.oXe $ Q.H.-.+.",
"W ~ ^ k + ).oX.X.XoXr % S.X.{ OX",
"Z E ! U + `.[.i d .X/.< [ ` O.OX",
"D C A I # `.oX`.]..XoXt ( ..} OX",
"OXS F h . f v.m.b.b.a X ]  .@.OX",
"OXG H x s y 0 7 8 q p 1 ) o.$.OX",
"OXB J c g M.u 6.7.8.q.w _ } OXOX",
"OXOXV N 9 2 OX' 6 5 4 3 OXOXOXOX",
"OXOXOXOXOXOXOX$.%.&.*.OXOXOXOXOX"
};
