/* XPM */
static char *_517018998728[] = {
/* columns rows colors chars-per-pixel */
"32 32 188 2 ",
"   c #000002",
".  c #00000B",
"X  c #020C03",
"o  c #0C140D",
"O  c #050212",
"+  c #0D0C1D",
"@  c #111A11",
"#  c #172315",
"$  c #080020",
"%  c #191925",
"&  c #290027",
"*  c #1B2732",
"=  c #2D292D",
"-  c #2C2924",
";  c #302C2F",
":  c #292835",
">  c #322E38",
",  c #253637",
"<  c #4D0C36",
"1  c #520C34",
"2  c #771D28",
"3  c #741429",
"4  c #681631",
"5  c #732C31",
"6  c #264702",
"7  c #2B4B07",
"8  c #2E5008",
"9  c #3C4B31",
"0  c #577830",
"q  c #353643",
"w  c #373A44",
"e  c #383846",
"r  c #591143",
"t  c #580D40",
"y  c #771C45",
"u  c #413E4A",
"i  c #423E52",
"p  c #762346",
"a  c #43424E",
"s  c #414147",
"d  c #464552",
"f  c #4A4B55",
"g  c #56545B",
"h  c #70554F",
"j  c #595768",
"k  c #586167",
"l  c #796F60",
"z  c #727071",
"x  c #FE2F3C",
"c  c #FE3D3F",
"v  c #FA423E",
"b  c #822A4C",
"n  c #82274C",
"m  c #8C2865",
"M  c #B63276",
"N  c #BD3272",
"B  c #B3327C",
"V  c #BB3765",
"C  c #DA325C",
"Z  c #FC2E44",
"A  c #EE324F",
"S  c #FE3444",
"D  c #FC3945",
"F  c #F4324A",
"G  c #FF3A4A",
"H  c #FF354F",
"J  c #E43255",
"K  c #EC3251",
"L  c #F93558",
"P  c #C5326C",
"I  c #CD3267",
"U  c #D63261",
"Y  c #D63877",
"T  c #F73A6A",
"R  c #815947",
"E  c #805644",
"W  c #FE4344",
"Q  c #FE4C43",
"!  c #FF4D48",
"~  c #FF5242",
"^  c #FE5C44",
"/  c #FF564A",
"(  c #FF4253",
")  c #FF415C",
"_  c #FD6444",
"`  c #FF6D44",
"'  c #FF7B44",
"]  c #FF7243",
"[  c #F3757C",
"{  c #569508",
"}  c #5F9516",
"|  c #5F9B11",
" . c #4F8B09",
".. c #629B15",
"X. c #62961A",
"o. c #659C18",
"O. c #66AA0B",
"+. c #6DB30E",
"@. c #70B60F",
"#. c #73BB0D",
"$. c #65A312",
"%. c #68A614",
"&. c #6BAC11",
"*. c #6DB110",
"=. c #72B613",
"-. c #74B914",
";. c #7EA238",
":. c #76C10C",
">. c #79C60B",
",. c #7BCA0A",
"<. c #84B331",
"1. c #95C53A",
"2. c #96B14D",
"3. c #958670",
"4. c #FE8C7F",
"5. c #FA927B",
"6. c #F9B676",
"7. c #FCBC79",
"8. c #C7CB7C",
"9. c #FEC179",
"0. c #FECA79",
"q. c #FEC874",
"w. c #FED279",
"e. c #FEDB79",
"r. c #FEE479",
"t. c #FEE979",
"y. c #7E7E84",
"u. c #C63680",
"i. c #FE3786",
"p. c #FE3D84",
"a. c #FF3689",
"s. c #FF3A91",
"d. c #FE4384",
"f. c #FF4A85",
"g. c #FF4B8C",
"h. c #FF418C",
"j. c #FE5285",
"k. c #FD5984",
"l. c #FF578D",
"z. c #FF588D",
"x. c #FF6185",
"c. c #FF6A85",
"v. c #FF7385",
"b. c #FF7C85",
"n. c #7D898C",
"m. c #84838B",
"M. c #87898F",
"N. c #8D8C93",
"B. c #94959A",
"V. c #96969B",
"C. c #8B9496",
"Z. c #9D9DA2",
"A. c #9F9EA9",
"S. c #A4A4AB",
"D. c #ADAFB2",
"F. c #AFB1B5",
"G. c #B6B6BA",
"H. c #B9BABE",
"J. c #B2B3B5",
"K. c #FF8185",
"L. c #FE8C80",
"P. c #FE9880",
"I. c #EF8A87",
"U. c #FFAF82",
"Y. c #FFBE80",
"T. c #FEC480",
"R. c #FED395",
"E. c #E2DA96",
"W. c #F9DDAC",
"Q. c #F8E2AF",
"!. c #FDE5B5",
"~. c #FDE7BA",
"^. c #FFE9BD",
"/. c #FFF3BD",
"(. c #BEBFC3",
"). c #C6C6CA",
"_. c #C9CACD",
"`. c #C7C7CA",
"'. c #CFCFD2",
"]. c #D7D8D9",
"[. c #E0DDDF",
"{. c #FEEFC3",
"}. c #DDDEE0",
"|. c #E4E3E5",
" X c #E9EAEB",
".X c #FEFEFE",
"XX c #F3F3F3",
"oX c None",
/* pixels */
"oXoXoXoXoXoXoXoXoXoXoXoXoXoXoXt.t.t.oXoXoXoXoXoXoXoXoXoXoXoXoXoX",
"oXoXoXoXK.K.K.K.K.K.K.K.oXoXoXt.t.r.r.r.oXoXoXoXoXoXoX!.oXoXoXoX",
"oXoXoXb.K.K.b.b.K.K.b.b.b.K.v.7.r.r.r.e.e.oXoXoXoXoX!.!.!.oXoXoX",
"oXoXoXv.v.v.v.v.v.v.v.v.v.v.v.P.e.w.e.e.e.e.e.oXoXoX!.!.!.oXoXoX",
"oXoXv.v.v.v.c.v.v.v.c.v.c.v.c.P.e.0.w.w.w.w.w.w.oX~.!.!.!.!.oXoX",
"oXoXc.c.c.c.c.c.c.c.c.c.c.c.x.4.w.0.0.0.0.0.0.q.R.~.!.!.!.!.oXoX",
"oXx.x.x.x.x.x.x.k.k.x.x.x.x.k.4.0.9.9.9.9.9.9.0.!.!.!.!.!.!.!.oX",
"oXl.k.k.k.k.k.k.f.[ k.k.k.k.j.5.7.6.6.6.6.6.7.W.!.!.!.!.!.!.!.oX",
"oXj.j.j.k.j.j.l.l.z.z.l.l.l.z.U.T.Y.T.7.T.R./.{.!.!.!.!.!.!.!.!.",
"f.f.f.f.f.f.g.V p p b b b n b R R R R E h l l 3.!.!.!.!.!.!.!.!.",
"d.d.d.d.h.d.g.y   .                     . X   - !.!.!.!.!.!.!.!.",
"p.p.p.p.p.i.h.y . O > a u u u a u u a % O O . ; !.!.!.!.!.!.!.!.",
"i.i.T s.a.a.s.y   . _..X.X.X.X.X.X.X.X|.% O O = !.!.!.!.!.!.!.oX",
"oX( v v ) T T y . O _..X.X.X.X.X.X.X.X.Xz   . = !.Q.!.!.!.~.{.oX",
"oXQ ] v c v Q 2 . . B._.(.H.F.D.G..X.X.XB.  . = !.!.Q.{.!.E.1.oX",
"oX! 5.] ^ D D 2 . . A.].].D.a d j XX.X.XZ.  . = !.!.~.8.<.+.#.oX",
"Z Q ] ` ] _ ! 2 . . _..X.X.X.X.X.X.X.X.XM.  . = ~.Q.2.{ O.+.:.oX",
"Z D _ ^ ^ ^ _ 5 . . _..X.X.X.X.X.X.X.X.XH.. . ; !.;.{ %.&.+.:.oX",
"Z D Q Q ~ Q ! 5 . O _..X.X XJ.G.F.]..X.X.XN.  > 2. .o.%.*.#.oXoX",
"F F W W W c I.g   O _..X.XG.  .   % ]..X.X.Xd o X.} $.%.*.#.oXoX",
"A A S D D x [ g   O )..X.XXX_._.'.`.|..X.X.XA.X X.} $.&.=.:.oXoX",
"oXJ F S S Z G 5 . . _..X.X.X.X.X.X.X.X.X.X.Xm.X X...$.&.#.>.oXoX",
"oXC J F F F H 3 . O )..X.X.X.X.X.X.X.X.X.XD.+ o } ..%.*.#.>.oXoX",
"oXU U J K J L 4     : e q q w e w q q w :   . @ } $.&.+.:.,.oXoX",
"oXoXI I U U T 4 * d .     .       . . . s + O @ ..$.&.#.:.,.oXoX",
"oXoXP P P P U 1 n. Xz H.m.V.B.y.Z.y.m.Z.N.Z.A.# | %.*.#.>.oXoXoX",
"oXoXoXP N N Y < C.].J.).G.f f ].V.z Z.J.H.V.M.> X.&.+.#.>.oXoXoX",
"oXoXoXM M B u.< , k w j > % : N.: j i j e q : $ oX&.+.:.oXoXoXoX",
"oXoXoXoXB B B m r r r < < & 9 0 6 6 7 6 8 8 7 oXoXoXoXoXoXoXoXoX",
"oXoXoXoXoXoXoXoXoXoXoXoXoXoX+.O.=.-.=.=.-.-.-.oXoXoXoXoXoXoXoXoX",
"oXoXoXoXoXoXoXoXoXoXoXoXoXoX=.#.#.#.-.-.#.#.#.oXoXoXoXoXoXoXoXoX",
"oXoXoXoXoXoXoXoXoXoXoXoXoXoXoXoXoXoX,.>.,.oXoXoXoXoXoXoXoXoXoXoX"
};
