<?xml version="1.0" standalone="no"?>
<!DOCTYPE svg PUBLIC "-//W3C//DTD SVG 20010904//EN"
 "http://www.w3.org/TR/2001/REC-SVG-20010904/DTD/svg10.dtd">
<svg version="1.0" xmlns="http://www.w3.org/2000/svg"
 width="300.000000pt" height="300.000000pt" viewBox="0 0 300.000000 300.000000"
 preserveAspectRatio="xMidYMid meet">
<metadata>
Created by potrace 1.10, written by Peter Selinger 2001-2011
</metadata>
<g transform="translate(0.000000,300.000000) scale(0.100000,-0.100000)"
fill="#000000" stroke="none">
<path d="M1410 2978 c0 -33 44 -198 52 -198 6 0 7 10 4 23 -4 12 -9 31 -11 42
-3 11 -10 41 -16 68 -6 26 -8 54 -5 62 3 9 0 15 -9 15 -8 0 -15 -6 -15 -12z"/>
<path d="M1500 2978 c8 -8 40 -20 70 -28 30 -7 89 -29 130 -47 41 -19 95 -44
119 -55 25 -11 59 -31 76 -44 18 -13 36 -24 40 -24 5 0 34 -20 64 -43 31 -24
64 -48 73 -53 45 -25 154 -142 182 -196 l19 -37 -31 -38 c-44 -56 -180 -182
-251 -232 -34 -24 -59 -46 -56 -49 16 -16 209 147 306 259 l53 61 -28 54 c-53
100 -268 275 -456 369 -94 48 -233 101 -285 110 -35 6 -38 6 -25 -7z"/>
<path d="M474 2926 c-194 -88 -464 -698 -452 -1022 4 -110 18 -134 81 -134 34
0 38 -2 31 -17 -27 -63 -65 -191 -79 -267 -20 -115 -19 -326 1 -447 34 -203
133 -444 263 -642 62 -93 78 -111 116 -128 121 -54 510 -35 795 37 94 24 102
24 550 25 l455 0 3 889 3 890 -770 0 -771 0 0 -890 0 -890 288 -2 287 -3 -100
-13 c-55 -8 -129 -20 -165 -27 -132 -26 -397 -35 -497 -16 -72 14 -109 40
-154 108 -21 32 -44 64 -50 71 -5 7 -11 21 -12 32 -1 10 -4 17 -8 15 -8 -6
-99 176 -138 275 -116 298 -120 662 -9 939 21 52 21 54 3 67 -10 8 -31 14 -46
14 -45 0 -59 31 -59 130 0 194 123 570 262 799 31 52 106 138 141 163 36 26
151 39 247 27 36 -4 90 -10 120 -13 90 -9 211 -25 218 -30 4 -2 25 -7 47 -10
22 -4 56 -11 75 -16 19 -5 50 -12 68 -15 18 -3 41 -10 50 -14 9 -5 38 -15 65
-22 26 -6 50 -16 53 -20 3 -5 14 -9 24 -9 11 0 24 -9 30 -20 15 -27 14 -309 0
-380 -6 -30 -14 -68 -16 -85 -3 -16 -12 -54 -20 -84 -8 -29 -13 -55 -11 -58 6
-5 45 141 59 220 13 73 13 349 1 392 -9 27 -18 32 -124 66 -204 67 -458 110
-714 124 -84 4 -117 2 -141 -9z m1729 -846 c9 -10 18 -1550 9 -1550 -5 0 -7
-35 -5 -79 l5 -79 -52 -11 c-31 -7 -174 -11 -365 -11 l-314 0 3 22 c1 13 5 30
8 38 4 8 8 21 10 29 3 11 9 9 25 -8 18 -20 31 -23 83 -22 35 0 69 6 76 12 10
8 18 8 27 1 8 -7 73 -11 176 -11 140 0 163 2 168 16 5 14 8 14 17 1 18 -24 63
-28 85 -7 17 16 20 32 20 108 0 75 -3 93 -20 115 -19 24 -27 26 -94 26 -57 0
-74 3 -79 16 -3 9 -4 19 -1 24 13 22 -69 46 -92 27 -7 -5 -13 -24 -13 -41 l0
-31 -75 3 c-47 2 -81 -1 -90 -8 -10 -8 -19 -8 -33 -1 -11 6 -65 10 -121 10
-83 -1 -103 -4 -110 -17 -9 -15 -11 -15 -28 1 -16 14 -39 17 -126 17 -65 0
-108 -4 -113 -11 -4 -8 -9 -8 -17 0 -17 17 -152 14 -167 -4 -10 -13 -15 -10
-34 18 -21 31 -25 32 -97 35 -105 4 -111 -4 -115 -146 -4 -126 -2 -135 32
-150 37 -17 155 -15 181 3 19 13 23 13 37 0 17 -17 136 -21 152 -5 6 6 23 5
47 -2 34 -10 40 -9 58 8 13 14 21 37 23 70 2 27 4 53 5 57 0 5 13 7 28 5 24
-3 29 -11 46 -67 15 -51 16 -69 7 -91 -10 -25 -15 -27 -78 -27 -37 -1 -107 -2
-157 -3 -49 -1 -163 -1 -252 -1 l-161 1 1 858 c2 662 5 858 14 862 7 3 338 5
737 5 398 0 726 -2 729 -5z m-243 -1385 c0 -21 -5 -25 -30 -25 -25 0 -30 4
-30 25 0 21 5 25 30 25 25 0 30 -4 30 -25z m-1016 -31 c3 -9 6 -35 6 -58 0
-23 9 -59 19 -80 37 -71 9 -96 -106 -96 l-83 0 0 86 0 86 60 -7 c51 -6 60 -5
60 9 0 13 -12 16 -60 16 -60 0 -60 0 -60 30 l0 30 79 0 c63 0 80 -3 85 -16z
m220 -40 c15 -38 8 -44 -52 -44 l-57 0 3 -45 4 -44 59 2 58 3 -19 -31 c-17
-27 -25 -30 -75 -33 -79 -4 -85 3 -85 108 0 47 3 90 7 93 3 4 39 7 79 7 56 0
73 -3 78 -16z m86 -89 l0 -105 -25 0 -25 0 0 105 0 105 25 0 25 0 0 -105z m95
78 l16 -28 -6 28 c-5 25 -3 27 24 27 28 0 30 -3 42 -57 l12 -58 13 40 c7 22
13 48 13 58 1 13 10 17 36 17 l34 0 -13 -37 c-7 -21 -25 -86 -41 -145 -28
-107 -28 -108 -58 -108 -27 0 -29 2 -21 27 10 39 9 58 -13 135 l-18 68 -51 0
c-50 0 -51 1 -51 30 0 27 3 30 33 30 26 0 37 -6 49 -27z m340 -3 l16 -30 -81
0 c-77 0 -80 1 -80 23 0 34 7 37 71 37 55 0 59 -2 74 -30z m193 -2 l3 -28 -85
0 c-83 0 -86 1 -86 23 0 13 3 27 7 31 4 4 41 5 83 4 74 -3 75 -4 78 -30z m82
-73 l0 -105 -30 0 -30 0 0 105 0 105 30 0 30 0 0 -105z m188 -2 l3 -103 -32 0
-31 0 5 75 6 75 -59 0 -60 0 0 30 0 31 83 -3 82 -3 3 -102z m-978 23 c0 -51
-55 -65 -84 -21 -9 13 -16 27 -16 30 0 3 23 5 50 5 36 0 50 -4 50 -14z m420
-24 l0 -39 56 5 c31 3 55 1 52 -4 -30 -67 -28 -65 -92 -62 l-61 3 -3 68 c-3
66 -3 67 23 67 22 0 25 -4 25 -38z m180 -1 c0 -34 3 -38 25 -38 22 0 25 4 25
38 0 37 2 39 30 39 30 0 30 0 30 -58 0 -32 -5 -63 -12 -70 -7 -7 -39 -12 -73
-12 -34 0 -66 5 -73 12 -7 7 -12 38 -12 70 0 58 0 58 30 58 28 0 30 -2 30 -39z
m270 -31 l0 -70 -30 0 -30 0 0 70 0 70 30 0 30 0 0 -70z m-360 40 c0 -5 -13
-10 -30 -10 -16 0 -30 5 -30 10 0 6 14 10 30 10 17 0 30 -4 30 -10z"/>
<path d="M944 1909 c-16 -17 -20 -42 -25 -143 -4 -87 -2 -127 7 -141 9 -17 9
-29 -2 -60 -11 -31 -14 -116 -14 -372 0 -182 3 -338 6 -347 3 -9 10 -13 15
-10 5 3 9 -1 9 -9 0 -8 8 -22 19 -31 17 -16 58 -17 507 -14 l489 3 50 27 c108
59 155 129 155 230 0 54 -5 76 -31 124 -17 32 -34 61 -38 64 -4 3 -12 12 -17
22 -5 9 -29 38 -54 64 l-45 48 -6 181 c-7 215 -19 257 -96 331 -26 26 -55 44
-75 47 -18 3 -213 6 -434 6 -396 1 -401 1 -420 -20z m871 -28 c85 -38 129
-199 109 -398 l-9 -91 78 -93 c43 -52 89 -116 102 -143 44 -87 30 -170 -38
-235 -20 -19 -33 -39 -30 -44 4 -6 0 -8 -10 -4 -11 4 -14 2 -11 -7 3 -9 -14
-19 -52 -31 -49 -15 -79 -17 -213 -11 -247 10 -510 12 -504 3 2 -4 -49 -7
-114 -6 -128 1 -144 -1 -155 -16 -4 -6 -8 -2 -8 8 0 9 6 17 13 18 9 0 10 2 0
6 -10 4 -13 88 -13 374 l0 369 160 0 160 0 0 -25 0 -25 161 0 160 0 -3 48 c-3
43 -5 47 -32 50 -18 2 -26 0 -22 -7 5 -7 -85 -10 -288 -8 -162 1 -287 5 -278
9 16 6 16 7 0 7 -16 1 -18 14 -18 136 l0 135 408 0 c372 0 410 -2 447 -19z"/>
<path d="M1280 1185 l0 -75 235 0 235 0 -57 74 c-41 52 -65 73 -80 73 -13 0
-20 -3 -17 -8 3 -5 -55 -9 -130 -9 -84 0 -136 4 -136 10 0 6 -11 10 -25 10
-24 0 -25 -2 -25 -75z m213 4 c78 0 135 -5 131 -10 -3 -5 -1 -9 4 -9 6 0 12
-7 16 -15 5 -13 -16 -15 -154 -15 l-160 0 0 23 c0 25 9 39 20 32 4 -2 68 -5
143 -6z"/>
<path d="M840 512 c0 -13 9 -18 40 -18 42 -1 48 4 28 24 -19 19 -68 15 -68 -6z"/>
<path d="M2512 2888 c-7 -7 -12 -18 -12 -25 0 -41 -106 -263 -174 -365 -17
-26 -17 -28 -2 -28 10 0 15 4 12 9 -3 5 1 14 9 21 8 7 15 17 15 23 0 6 7 18
16 28 19 21 104 198 104 217 0 6 4 12 8 12 4 0 8 10 9 22 3 41 25 78 45 78 18
0 64 -41 113 -101 28 -34 115 -166 122 -187 4 -9 10 -19 13 -22 25 -18 137
-293 155 -382 4 -18 9 -71 11 -118 4 -102 -19 -180 -102 -348 -17 -34 -28 -65
-24 -67 9 -5 85 159 117 254 32 94 34 192 4 303 -57 219 -202 492 -333 632
-53 56 -82 68 -106 44z"/>
<path d="M443 1723 c9 -2 23 -2 30 0 6 3 -1 5 -18 5 -16 0 -22 -2 -12 -5z"/>
<path d="M578 1713 c7 -3 16 -2 19 1 4 3 -2 6 -13 5 -11 0 -14 -3 -6 -6z"/>
<path d="M190 1670 c-11 -11 -20 -28 -19 -37 0 -14 2 -15 6 -3 9 24 35 50 50
50 8 0 52 -28 98 -62 90 -68 224 -152 232 -145 2 3 -32 26 -76 52 -44 25 -115
73 -157 106 -42 32 -85 59 -95 59 -11 0 -28 -9 -39 -20z"/>
<path d="M2925 1644 c-107 -21 -140 -29 -205 -50 -128 -42 -248 -117 -343
-215 -52 -54 -111 -140 -122 -178 -11 -37 9 -18 58 57 97 144 278 276 437 317
3 1 12 5 20 8 14 6 33 10 108 24 31 5 41 -3 23 -22 -15 -17 -52 -142 -62 -209
-4 -35 -13 -162 -19 -282 -12 -248 -30 -351 -83 -465 -49 -107 -155 -199 -294
-256 l-51 -21 -20 21 c-30 33 -92 126 -92 137 0 5 -4 10 -10 10 -5 0 -10 -4
-10 -9 0 -5 -3 -18 -7 -28 -3 -10 -2 -15 2 -11 5 5 23 -13 41 -40 18 -26 45
-62 61 -80 l28 -34 83 36 c100 42 179 100 236 175 104 136 133 269 151 685 9
220 38 331 103 399 35 36 35 37 12 36 -14 -1 -34 -3 -45 -5z"/>
<path d="M153 1560 c-6 -27 -7 -50 -3 -50 8 0 23 91 16 97 -2 2 -8 -19 -13
-47z"/>
<path d="M144 1390 c0 -63 1 -89 3 -57 2 31 2 83 0 115 -2 31 -3 5 -3 -58z"/>
<path d="M584 1456 c11 -9 24 -16 30 -16 12 0 7 5 -24 19 -24 11 -24 11 -6 -3z"/>
<path d="M631 1436 c2 -2 15 -9 29 -15 24 -11 24 -11 6 3 -16 13 -49 24 -35
12z"/>
<path d="M645 1243 c-53 -27 -85 -64 -82 -92 5 -40 34 -93 74 -134 47 -49 56
-39 10 12 -44 49 -67 92 -67 125 0 18 12 33 44 56 25 16 48 35 51 40 8 13 6
12 -30 -7z"/>
<path d="M1355 278 c-39 -46 -115 -187 -115 -214 0 -16 2 -16 18 -1 37 33 158
44 242 22 8 -2 31 -7 50 -11 19 -3 40 -7 45 -8 9 -3 30 -7 110 -22 125 -23
247 -13 328 28 48 24 120 89 148 134 23 37 19 52 -25 93 -36 34 -41 22 -9 -22
24 -34 25 -38 10 -59 -24 -36 -79 -93 -108 -110 -84 -53 -251 -59 -434 -18
-69 16 -135 23 -212 24 -62 1 -113 2 -113 4 0 13 51 98 87 145 53 68 35 80
-22 15z"/>
</g>
</svg>
